<svg width="268" height="268" viewBox="0 0 268 268" fill="none" xmlns="http://www.w3.org/2000/svg">
<path fill-rule="evenodd" clip-rule="evenodd" d="M117.035 183.523C59.9459 180.302 16.0879 161.147 16.0879 138V168C16.0879 190.895 58.9954 209.884 115.173 213.412L117.035 183.523ZM171.933 211.583C218.54 205.435 252.088 188.245 252.088 168V138C252.088 155.469 227.108 170.664 190.314 178.452C186.087 186.314 179.96 197.357 171.933 211.583Z" fill="#D9D9D9"/>
<path fill-rule="evenodd" clip-rule="evenodd" d="M70.8791 130.851C37.9428 122.69 16.0879 108.34 16.0879 92V122C16.0879 135.228 30.4116 147.153 53.3427 155.544C53.7782 154.477 54.3613 153.431 55.0918 152.404C61.2129 143.972 66.4753 136.787 70.8791 130.851ZM199.648 160.253C231.269 152.001 252.088 137.948 252.088 122V92C252.088 105.793 236.516 118.167 211.852 126.599C212.157 128.772 211.87 131.074 210.992 133.504C207.836 142.161 204.054 151.077 199.648 160.253Z" fill="#D9D9D9"/>
<path fill-rule="evenodd" clip-rule="evenodd" d="M252.088 46C252.088 20.5949 199.257 0 134.088 0C68.9183 0 16.0879 20.5949 16.0879 46V76C16.0879 93.9985 42.6043 109.583 81.239 117.14C81.4623 116.853 81.6799 116.575 81.8918 116.304C84.9752 112.309 92.4719 99.699 104.382 78.4747C63.6591 74.1732 34.0879 61.2607 34.0879 46C34.0879 27.2223 68.0879 10 134.088 10C200.088 10 234.088 27.2223 234.088 46C234.088 62.7692 198.382 76.703 151.409 79.4918L148.77 121.647C207.011 118.83 252.088 99.4669 252.088 76V46Z" fill="#D9D9D9"/>
<path d="M138.413 42.9257C139.954 40.1045 144.258 41.3755 144.059 44.5836L138.441 135.246C163.489 134.389 180.249 132.415 198.452 126.692C200.8 125.954 203.002 128.109 202.159 130.422C199.484 137.766 193.907 151.777 184.712 169.158C174.114 189.192 143.47 242.7 130.108 265.954C128.529 268.703 124.346 267.412 124.542 264.248L130.211 172.754C107.173 172.09 87.5776 170.241 67.0375 164.16C65.0822 163.581 64.3082 161.254 65.5051 159.603C71.0988 151.887 84.9939 132.79 92.0461 123.702C98.8558 114.927 125.854 65.926 138.413 42.9257Z" fill="#F0913C"/>
</svg>
